<svg width="310" height="48" viewBox="0 0 310 48" fill="none" xmlns="http://www.w3.org/2000/svg">
<path d="M34 24L14 24" stroke="white" stroke-width="2" stroke-linecap="round" stroke-linejoin="round"/>
<path d="M21 31L14 24L21 17" stroke="white" stroke-width="2" stroke-linecap="round" stroke-linejoin="round"/>
<circle cx="88" cy="24" r="24" transform="rotate(-90 88 24)" fill="#5468E7"/>
<path d="M78 24H98" stroke="white" stroke-width="2" stroke-linecap="round" stroke-linejoin="round"/>
<path d="M91 17L98 24L91 31" stroke="white" stroke-width="2" stroke-linecap="round" stroke-linejoin="round"/>
<g clip-path="url(#clip0_0_1768)">
<rect x="166" width="144" height="48" rx="8" fill="#232340"/>
<path fill-rule="evenodd" clip-rule="evenodd" d="M277.293 21.2929C277.683 20.9024 278.317 20.9024 278.707 21.2929L282 24.5858L285.293 21.2929C285.683 20.9024 286.317 20.9024 286.707 21.2929C287.098 21.6834 287.098 22.3166 286.707 22.7071L282.707 26.7071C282.317 27.0976 281.683 27.0976 281.293 26.7071L277.293 22.7071C276.902 22.3166 276.902 21.6834 277.293 21.2929Z" fill="white"/>
<path d="M190.803 22.0176C190.803 21.2285 191.076 20.584 191.623 20.084C192.174 19.584 192.883 19.334 193.75 19.334C194.586 19.334 195.273 19.5625 195.812 20.0195C196.355 20.4766 196.627 21.0586 196.627 21.7656C196.627 22.2188 196.49 22.668 196.217 23.1133C195.943 23.5547 195.447 24.1309 194.729 24.8418L192.959 26.6172V26.7168H196.756V28H190.885V26.9512L193.703 24.0684C194.281 23.4824 194.666 23.043 194.857 22.75C195.049 22.4531 195.145 22.1562 195.145 21.8594C195.145 21.4883 195.008 21.1816 194.734 20.9395C194.465 20.6973 194.121 20.5762 193.703 20.5762C193.262 20.5762 192.904 20.709 192.631 20.9746C192.357 21.2402 192.221 21.5879 192.221 22.0176V22.041H190.803V22.0176ZM201.549 28.2109C200.533 28.2109 199.74 27.8203 199.17 27.0391C198.604 26.2578 198.32 25.166 198.32 23.7637C198.32 22.3691 198.605 21.2832 199.176 20.5059C199.75 19.7246 200.541 19.334 201.549 19.334C202.557 19.334 203.346 19.7246 203.916 20.5059C204.486 21.2871 204.771 22.377 204.771 23.7754C204.771 25.1699 204.486 26.2578 203.916 27.0391C203.35 27.8203 202.561 28.2109 201.549 28.2109ZM200.295 26.1367C200.592 26.6836 201.01 26.957 201.549 26.957C202.088 26.957 202.504 26.6836 202.797 26.1367C203.094 25.5859 203.242 24.7949 203.242 23.7637C203.242 22.7402 203.094 21.957 202.797 21.4141C202.5 20.8672 202.084 20.5938 201.549 20.5938C201.014 20.5938 200.596 20.8672 200.295 21.4141C199.998 21.9609 199.85 22.7441 199.85 23.7637C199.85 24.7949 199.998 25.5859 200.295 26.1367ZM206.342 22.0176C206.342 21.2285 206.615 20.584 207.162 20.084C207.713 19.584 208.422 19.334 209.289 19.334C210.125 19.334 210.812 19.5625 211.352 20.0195C211.895 20.4766 212.166 21.0586 212.166 21.7656C212.166 22.2188 212.029 22.668 211.756 23.1133C211.482 23.5547 210.986 24.1309 210.268 24.8418L208.498 26.6172V26.7168H212.295V28H206.424V26.9512L209.242 24.0684C209.82 23.4824 210.205 23.043 210.396 22.75C210.588 22.4531 210.684 22.1562 210.684 21.8594C210.684 21.4883 210.547 21.1816 210.273 20.9395C210.004 20.6973 209.66 20.5762 209.242 20.5762C208.801 20.5762 208.443 20.709 208.17 20.9746C207.896 21.2402 207.76 21.5879 207.76 22.0176V22.041H206.342V22.0176ZM217.088 28.2109C216.072 28.2109 215.279 27.8203 214.709 27.0391C214.143 26.2578 213.859 25.166 213.859 23.7637C213.859 22.3691 214.145 21.2832 214.715 20.5059C215.289 19.7246 216.08 19.334 217.088 19.334C218.096 19.334 218.885 19.7246 219.455 20.5059C220.025 21.2871 220.311 22.377 220.311 23.7754C220.311 25.1699 220.025 26.2578 219.455 27.0391C218.889 27.8203 218.1 28.2109 217.088 28.2109ZM215.834 26.1367C216.131 26.6836 216.549 26.957 217.088 26.957C217.627 26.957 218.043 26.6836 218.336 26.1367C218.633 25.5859 218.781 24.7949 218.781 23.7637C218.781 22.7402 218.633 21.957 218.336 21.4141C218.039 20.8672 217.623 20.5938 217.088 20.5938C216.553 20.5938 216.135 20.8672 215.834 21.4141C215.537 21.9609 215.389 22.7441 215.389 23.7637C215.389 24.7949 215.537 25.5859 215.834 26.1367Z" fill="white"/>
</g>
<defs>
<clipPath id="clip0_0_1768">
<rect width="144" height="48" fill="white" transform="translate(166)"/>
</clipPath>
</defs>
</svg>
