<svg width="343" height="480" viewBox="0 0 343 480" fill="none" xmlns="http://www.w3.org/2000/svg">
<path opacity="0.499093" d="M-66.3228 0.0165765C-87.8631 4.66352 -105.056 22.1625 -111.467 42.9421C-118.106 64.4689 -111.396 87.0631 -94.8227 102.15C-78.8186 116.702 -54.9727 123.57 -34.265 115.614C-14.895 108.17 1.93445 86.9421 -7.41606 65.7213C-15.3149 47.8025 -38.7267 37.3273 -57.015 45.1481C-75.3033 52.9689 -84.1913 74.8586 -80.8467 93.7595C-76.6198 117.606 -53.4499 130.764 -32.2654 137.432C-6.60483 145.559 23.2898 146.755 44.3106 165.456C60.8839 180.201 69.0105 203.173 67.3595 225.112C66.6044 236.106 63.1191 246.739 57.2191 256.047C50.6937 266.145 39.5571 274.791 27.2747 275.972C13.6119 277.289 3.79174 266.806 2.8026 253.648C1.72808 239.181 10.4951 226.535 18.828 215.555C34.7466 194.59 55.1199 173.718 81.5632 167.257C104.982 161.564 133.148 168.011 145.565 190.306C159.641 215.583 149.621 245.749 134.699 268.052C126.601 280.15 116.973 291.187 107.494 302.21C97.859 313.418 88.1384 324.569 79.0299 336.233C61.7948 358.35 46.7585 382.624 40.2758 410.193C34.1916 436.053 36.0061 463.864 50.3593 486.771C63.6947 508.12 85.228 523.185 108.127 532.842C136.734 544.94 167.831 549.693 198.146 555.486L295.38 574.074L342.004 582.983C343.007 583.176 343.427 581.638 342.431 581.439L246.364 563.072C215.11 557.101 183.636 551.814 152.596 544.812C124.964 538.571 97.247 529.483 74.8812 511.5C64.9756 503.537 56.2656 493.98 49.9394 482.907C43.1481 470.811 39.2897 457.291 38.6747 443.433C35.5792 383.151 80.2254 336.959 116.325 294.339C133.518 274.029 151.194 251.414 153.556 223.888C154.588 211.99 152.702 199.55 146.732 189.082C141.232 179.636 132.73 172.302 122.58 168.246C100.677 159.244 76.0055 164.133 56.5218 176.536C45.6342 183.489 36.1485 192.441 27.6804 202.119C19.0343 212.011 9.98983 222.878 4.73817 235.011C0.269287 245.344 -0.748314 258.075 5.84116 267.796C11.7333 276.478 22.1654 279.224 32.0354 276.741C53.533 271.332 65.9505 249.564 68.5764 228.884C71.1737 208.375 65.1749 186.634 51.7682 170.808C34.6897 150.676 8.03291 145.844 -16.3396 140.051C-39.4241 134.571 -67.7674 125.327 -77.1819 100.997C-84.7036 81.5622 -76.634 55.8083 -57.0648 46.913C-37.2964 37.9108 -10.355 51.8944 -6.74004 73.4496C-2.39924 99.2818 -30.6215 117.642 -53.4285 117.379C-76.2355 117.115 -98.5372 102.434 -107.938 81.6405C-117.708 59.9927 -110.848 34.374 -94.6732 17.7646C-86.8927 9.65359 -76.8882 4.02355 -65.9172 1.58216C-64.8996 1.36156 -65.3408 -0.175563 -66.3228 0.0165765Z" fill="#D1ECFD"/>
</svg>
